<svg width="330" height="330" viewBox="0 0 330 330" fill="none" xmlns="http://www.w3.org/2000/svg">
<path d="M72.4971 145C88.9261 145 105.021 139.348 117.822 129.084C121.373 126.237 123.439 121.932 123.439 117.381C123.439 112.83 121.373 108.525 117.822 105.678C107.691 97.555 101.881 85.462 101.881 72.5C101.881 59.538 107.691 47.443 117.823 39.319C121.373 36.472 123.439 32.167 123.439 27.616C123.439 23.065 121.373 18.76 117.822 15.914C105.024 5.652 88.9261 0 72.4971 0C32.5221 0 9.15527e-05 32.524 9.15527e-05 72.501C9.15527e-05 112.477 32.5221 145 72.4971 145Z" fill="url(#paint0_linear_1_39)"/>
<path d="M237.055 330H315C320.438 330 325.451 327.056 328.1 322.306C330.749 317.556 330.62 311.744 327.762 307.117L222.762 137.117C220.03 132.693 215.2 130 210 130C204.799 130 199.971 132.693 197.237 137.118L157.724 201.092L232.984 323.389L237.055 330Z" fill="url(#paint1_linear_1_39)"/>
<path d="M201.828 330L126.751 208L107.565 176.822C104.804 172.577 100.082 170 95.0001 170C89.7911 170 84.9551 172.702 82.2251 177.139L55.8491 220L2.22509 307.139C-0.62291 311.767 -0.74491 317.574 1.90709 322.317C4.55709 327.061 9.56709 330 15.0001 330H175C175.006 330 175.014 330 175.02 330H201.828Z" fill="url(#paint2_linear_1_39)"/>
<defs>
<linearGradient id="paint0_linear_1_39" x1="61.7196" y1="0" x2="61.7196" y2="145" gradientUnits="userSpaceOnUse">
<stop stop-color="#FFB877"/>
<stop offset="1" stop-color="#FF8B66"/>
</linearGradient>
<linearGradient id="paint1_linear_1_39" x1="243.862" y1="130" x2="243.862" y2="330" gradientUnits="userSpaceOnUse">
<stop stop-color="#BCE1F5"/>
<stop offset="1" stop-color="#7796C6"/>
</linearGradient>
<linearGradient id="paint2_linear_1_39" x1="100.914" y1="170" x2="100.914" y2="330" gradientUnits="userSpaceOnUse">
<stop stop-color="#D4E8FB"/>
<stop offset="1" stop-color="#9CB4D9"/>
</linearGradient>
</defs>
</svg>
