<svg width="124" height="145" viewBox="0 0 124 145" fill="none" xmlns="http://www.w3.org/2000/svg">
<path d="M72.4971 145C88.9261 145 105.021 139.348 117.822 129.084C121.373 126.237 123.439 121.932 123.439 117.381C123.439 112.83 121.373 108.525 117.822 105.678C107.691 97.555 101.881 85.462 101.881 72.5C101.881 59.538 107.691 47.443 117.823 39.319C121.373 36.472 123.439 32.167 123.439 27.616C123.439 23.065 121.373 18.76 117.822 15.914C105.024 5.652 88.9261 0 72.4971 0C32.5221 0 9.15527e-05 32.524 9.15527e-05 72.501C9.15527e-05 112.477 32.5221 145 72.4971 145Z" fill="url(#paint0_linear_1_21)"/>
<defs>
<linearGradient id="paint0_linear_1_21" x1="61.7196" y1="0" x2="61.7196" y2="145" gradientUnits="userSpaceOnUse">
<stop stop-color="#FFB877"/>
<stop offset="1" stop-color="#FF8B66"/>
</linearGradient>
</defs>
</svg>
